<?xml version="1.0" encoding="UTF-8" standalone="no"?>
<svg
   xmlns:dc="http://purl.org/dc/elements/1.1/"
   xmlns:cc="http://creativecommons.org/ns#"
   xmlns:rdf="http://www.w3.org/1999/02/22-rdf-syntax-ns#"
   xmlns:svg="http://www.w3.org/2000/svg"
   xmlns="http://www.w3.org/2000/svg"
   xmlns:sodipodi="http://sodipodi.sourceforge.net/DTD/sodipodi-0.dtd"
   xmlns:inkscape="http://www.inkscape.org/namespaces/inkscape"
   role="img"
   viewBox="0 0 24 24"
   version="1.1"
   id="svg6"
   sodipodi:docname="amazonalexawhite.svg"
   inkscape:version="1.0.2 (e86c870879, 2021-01-15)">
  <metadata
     id="metadata12">
    <rdf:RDF>
      <cc:Work
         rdf:about="">
        <dc:format>image/svg+xml</dc:format>
        <dc:type
           rdf:resource="http://purl.org/dc/dcmitype/StillImage" />
      </cc:Work>
    </rdf:RDF>
  </metadata>
  <defs
     id="defs10" />
  <sodipodi:namedview
     pagecolor="#ffffff"
     bordercolor="#666666"
     borderopacity="1"
     objecttolerance="10"
     gridtolerance="10"
     guidetolerance="10"
     inkscape:pageopacity="0"
     inkscape:pageshadow="2"
     inkscape:window-width="1920"
     inkscape:window-height="1016"
     id="namedview8"
     showgrid="false"
     inkscape:zoom="35.916667"
     inkscape:cx="12"
     inkscape:cy="12"
     inkscape:window-x="1366"
     inkscape:window-y="27"
     inkscape:window-maximized="1"
     inkscape:current-layer="svg6" />
  <title
     id="title2">Amazon Alexa</title>
  <path
     d="M12 0C5.37 0 0 5.37 0 12C0 18.09 4.53 23.11 10.4 23.9V21.5A1.59 1.59 0 0 0 9.32 19.97A8.41 8.41 0 0 1 3.6 11.8A8.37 8.37 0 0 1 12.09 3.6A8.4 8.4 0 0 1 20.4 12.31L20.39 12.38A8.68 8.68 0 0 1 20.36 12.76C20.36 12.83 20.35 12.9 20.34 12.96C20.34 13.04 20.33 13.12 20.32 13.19L20.3 13.29C19.27 20.07 10.45 23.87 10.4 23.9C10.92 23.97 11.46 24 12 24C18.63 24 24 18.63 24 12S18.63 0 12 0Z"
     id="path4"
     style="fill:#ffffff" />
</svg>
