<?xml version="1.0" encoding="UTF-8" standalone="no"?>
<!DOCTYPE svg PUBLIC "-//W3C//DTD SVG 1.1//EN" "http://www.w3.org/Graphics/SVG/1.1/DTD/svg11.dtd">
<!-- Created with Vectornator (http://vectornator.io/) -->
<svg height="100%" stroke-miterlimit="10" style="fill-rule:nonzero;clip-rule:evenodd;stroke-linecap:round;stroke-linejoin:round;" version="1.1" viewBox="4444.46 2347.85 4188.54 5807.02" width="100%" xml:space="preserve" xmlns="http://www.w3.org/2000/svg" xmlns:vectornator="http://vectornator.io" xmlns:xlink="http://www.w3.org/1999/xlink">
<defs/>
<g id="Layer-1" vectornator:layerName="Layer 1">
<g opacity="1" vectornator:layerName="Book">
<path d="M8423.57 8153.87L5072.74 8153.87C4841.32 8153.87 4653.89 7927.94 4653.89 7649L4653.89 7649C4653.89 7370.06 4841.32 7144.13 5072.74 7144.13" fill="#ffffff" fill-rule="nonzero" opacity="1" stroke="#000000" stroke-linecap="round" stroke-linejoin="round" stroke-width="2" vectornator:layerName="path"/>
<path d="M8214.15 2347.85L5072.74 2347.85C4725.72 2347.85 4444.46 2686.88 4444.46 3105.16L4444.46 7649L4863.31 7396.56L8214.15 7396.56C8445.56 7396.56 8633 7170.63 8633 6891.69L8633 2852.73C8633 2573.78 8445.56 2347.85 8214.15 2347.85ZM7376.44 4367.34L5910.45 4367.34C5794.84 4367.34 5701.02 4254.25 5701.02 4114.9C5701.02 3975.56 5794.84 3862.47 5910.45 3862.47L7376.44 3862.47C7492.04 3862.47 7585.87 3975.56 7585.87 4114.9C7585.87 4254.25 7492.04 4367.34 7376.44 4367.34Z" fill="#ffffff" fill-rule="nonzero" opacity="1" stroke="none" vectornator:layerName="path"/>
</g>
</g>
</svg>
