<svg xmlns="http://www.w3.org/2000/svg" viewBox="0 0 1405.47 210"><defs><style>.cls-1{fill:#fafbfb;}.cls-2{fill:#4cbd94;}</style></defs><g id="Layer_2" data-name="Layer 2"><g id="Layer_1-2" data-name="Layer 1"><path class="cls-1" d="M213.42,95.43a55.84,55.84,0,0,0-22.55-22.68Q176.58,65,158.49,65a63.87,63.87,0,0,0-31.19,7.6,59.93,59.93,0,0,0-13.38,9.9V79.7A13.63,13.63,0,0,0,91,70a12.89,12.89,0,0,0-3.8,9.7V196.63a13.63,13.63,0,0,0,23.07,9.57,13.2,13.2,0,0,0,3.67-9.57V122.7a29.16,29.16,0,0,1,5.25-17.18A37.14,37.14,0,0,1,133.33,93.6a43.92,43.92,0,0,1,19.92-4.46,47.73,47.73,0,0,1,21.37,4.59,34.7,34.7,0,0,1,14.81,14q5.5,9.44,5.51,24.38v64.5a13.37,13.37,0,1,0,26.74,0v-64.5Q221.68,110.38,213.42,95.43Z"/><path class="cls-1" d="M383.57,8.78a12.26,12.26,0,0,0-9.05-3.54H234.26a12.12,12.12,0,0,0-12.58,12.59,12.12,12.12,0,0,0,12.58,12.58h56.63v166a13.64,13.64,0,1,0,27.27,0v-166h56.36a12.12,12.12,0,0,0,12.59-12.58A12.26,12.26,0,0,0,383.57,8.78Z"/><path class="cls-1" d="M636.12,189.38l-50.74-62.45L633.49,84a12.19,12.19,0,0,0,4.2-8.39A11.43,11.43,0,0,0,634.28,67a11.42,11.42,0,0,0-8.26-4.2,11.59,11.59,0,0,0-8.78,3.41L553.53,123V16.35A12.58,12.58,0,0,0,550,7a14,14,0,0,0-18.61,0,12.58,12.58,0,0,0-3.54,9.31v180.8a12.85,12.85,0,1,0,25.69,0v-41.8l13.05-11.64,49.87,61.66A11.78,11.78,0,0,0,625,210a12.79,12.79,0,0,0,9.31-3,12.14,12.14,0,0,0,4.85-8.52A12.4,12.4,0,0,0,636.12,189.38Z"/><path class="cls-1" d="M786.59,143.28A11,11,0,0,0,790,135q0-20.72-7.73-36.57a59,59,0,0,0-22.41-24.91q-14.7-9-35.14-9.05Q704,64.49,688,73.8a66.21,66.21,0,0,0-25,25.69q-9,16.4-9,37.89,0,21.24,9.57,37.62A67.86,67.86,0,0,0,690,200.69q16.9,9.31,38.67,9.31a79.1,79.1,0,0,0,25.3-4.46A72.46,72.46,0,0,0,776.1,194q4.46-3.4,4.19-8.13t-4.71-8.65a11.48,11.48,0,0,0-8-2.75,14.89,14.89,0,0,0-8.52,3,51.89,51.89,0,0,1-13.77,6.95,49.72,49.72,0,0,1-16.64,3q-15,0-26.48-6.55a47.73,47.73,0,0,1-23.91-34.34h99.67A12,12,0,0,0,786.59,143.28ZM699.15,93.6Q709.77,87,724.71,87q13.11,0,22.29,6a39.91,39.91,0,0,1,14.16,16.39,53.54,53.54,0,0,1,4.68,16.12H678.56a53.77,53.77,0,0,1,4.47-14A42.2,42.2,0,0,1,699.15,93.6Z"/><path class="cls-1" d="M906,210a98.9,98.9,0,0,1-72-30.28,103.5,103.5,0,0,1-21.49-33.43,109.38,109.38,0,0,1-7.74-41.42,107.75,107.75,0,0,1,7.74-41A104,104,0,0,1,834,30.54,101,101,0,0,1,866.1,8.13,97.26,97.26,0,0,1,906,0q20.19,0,34.74,5.24t29.23,17.31a14.71,14.71,0,0,1,3.28,3.27,10.1,10.1,0,0,1,1.57,3.41,18.48,18.48,0,0,1,.39,4.07,10.75,10.75,0,0,1-3.54,8.25,13.64,13.64,0,0,1-18.22.4,78.18,78.18,0,0,0-20-12.85Q923,24.64,906,24.64a68.48,68.48,0,0,0-29.1,6.3,76.74,76.74,0,0,0-24,17.3A79.66,79.66,0,0,0,836.74,73.8,83.45,83.45,0,0,0,831,104.87a84.13,84.13,0,0,0,5.77,31.33,79.66,79.66,0,0,0,16.12,25.56,74.94,74.94,0,0,0,24,17.17,72,72,0,0,0,54.4,1.58,97.6,97.6,0,0,0,22.94-12.72q4.72-3.4,9.31-3a11.75,11.75,0,0,1,7.73,3.67q3.15,3.27,3.15,9a13.2,13.2,0,0,1-1,5.11,14.28,14.28,0,0,1-3.15,4.59,105.24,105.24,0,0,1-30.28,17A100.18,100.18,0,0,1,906,210Z"/><path class="cls-1" d="M1248.4,70.13Q1240.66,65,1224.93,65a58.07,58.07,0,0,0-44,19.57V79.7q0-6.56-3.28-9.83t-9.83-3.28q-6.29,0-9.7,3.41t-3.41,9.7V196.89q0,6.56,3.41,9.83t9.7,3.28q6.56,0,9.83-3.41t3.28-9.7V120.34q0-12.06,7.73-19.93t21.11-10.75q13.37-2.88,30.15.53a15.58,15.58,0,0,0,6.29.26,10.4,10.4,0,0,0,5.11-2.49,10.08,10.08,0,0,0,3-5.64Q1256.13,75.24,1248.4,70.13Z"/><path class="cls-1" d="M1402.06,143.28a11,11,0,0,0,3.41-8.26q0-20.72-7.73-36.57a58.94,58.94,0,0,0-22.42-24.91q-14.68-9-35.13-9.05-20.71,0-36.7,9.31a66.14,66.14,0,0,0-25,25.69q-9,16.4-9,37.89,0,21.24,9.57,37.62a68,68,0,0,0,26.48,25.69q16.92,9.31,38.67,9.31a79,79,0,0,0,25.3-4.46A72.52,72.52,0,0,0,1391.58,194q4.45-3.4,4.19-8.13t-4.72-8.65a11.45,11.45,0,0,0-8-2.75,14.94,14.94,0,0,0-8.53,3,51.66,51.66,0,0,1-13.76,6.95,49.73,49.73,0,0,1-16.65,3q-14.94,0-26.48-6.55a47.67,47.67,0,0,1-23.9-34.34h99.67A12,12,0,0,0,1402.06,143.28ZM1314.63,93.6Q1325.25,87,1340.19,87q13.11,0,22.29,6a39.81,39.81,0,0,1,14.15,16.39,53,53,0,0,1,4.68,16.12H1294a54.53,54.53,0,0,1,4.47-14A42.29,42.29,0,0,1,1314.63,93.6Z"/><path class="cls-1" d="M493,134.74h16a4,4,0,0,1,4,4V198a12,12,0,0,1-12,12h0a12,12,0,0,1-12-12V138.72A4,4,0,0,1,493,134.74Z"/><path class="cls-1" d="M402,98.94a51,51,0,1,1,0,72.12,51.05,51.05,0,0,1,0-72.12m-17-17a75,75,0,1,0,106.07,0,75,75,0,0,0-106.07,0Z"/><rect class="cls-1" x="403.08" y="123" width="70" height="24" rx="12" transform="translate(32.85 349.31) rotate(-45)"/><path class="cls-2" d="M36.21,0C16.21,0,0,15.67,0,35V97H0v16H0v62c0,19.33,16.21,35,36.21,35s36.22-15.67,36.22-35V35C72.43,15.67,56.21,0,36.21,0ZM55.87,175c0,10.48-8.82,19-19.66,19s-19.66-8.52-19.66-19V113H27.94a8,8,0,1,0,0-16H16.55V35c0-10.48,8.82-19,19.66-19s19.66,8.52,19.66,19Z"/><path class="cls-1" d="M1119.88,134.74h16a4,4,0,0,1,4,4V198a12,12,0,0,1-12,12h0a12,12,0,0,1-12-12V138.72A4,4,0,0,1,1119.88,134.74Z"/><path class="cls-1" d="M1028.86,98.94a51,51,0,1,1,0,72.12,51,51,0,0,1,0-72.12m-17-17A75,75,0,1,0,1118,82a75,75,0,0,0-106.07,0Z"/><rect class="cls-1" x="1029.92" y="123" width="70" height="24" rx="12" transform="translate(216.45 792.55) rotate(-45)"/></g></g></svg>