<svg xmlns="http://www.w3.org/2000/svg" viewBox="0 0 265.78 189.98"><defs><style>.cls-1{fill:#4cbd94;}.cls-2{fill:#066;}</style></defs><g id="Layer_2" data-name="Layer 2"><g id="Layer_1-2" data-name="Layer 1"><path class="cls-1" d="M127.47,5.52c-17-10.47-39.06-5.6-49.18,10.87L45.85,69.22h0L37.47,82.86h0L5,135.69C-5.08,152.17.53,174,17.58,184.47s39.06,5.6,49.17-10.88L140,54.29C150.13,37.82,144.51,16,127.47,5.52ZM52.64,164.93c-5.48,8.93-17.45,11.58-26.69,5.9s-12.29-17.55-6.81-26.47L51.58,91.52l9.7,6a8,8,0,1,0,8.37-13.64l-9.7-6L92.4,25.05c5.48-8.92,17.46-11.57,26.69-5.9s12.3,17.55,6.81,26.48Z"/><path class="cls-2" d="M149.06,73.26a59,59,0,1,1,0,83.44,59.08,59.08,0,0,1,0-83.44M137.75,62a75,75,0,1,0,106.06,0,75,75,0,0,0-106.06,0Z"/><rect class="cls-2" x="155.78" y="106.98" width="70" height="16" rx="8" transform="translate(-25.43 168.58) rotate(-45)"/></g></g></svg>