<svg xmlns="http://www.w3.org/2000/svg" viewBox="0 0 350 350"><defs><style>.cls-1{fill:#066;}.cls-2{fill:#4cbd94;}.cls-3{fill:#fafbfb;}</style></defs><g id="Layer_2" data-name="Layer 2"><g id="Layer_1-2" data-name="Layer 1"><circle class="cls-1" cx="175" cy="175" r="175"/><path class="cls-2" d="M169.58,82c-17.05-10.46-39.06-5.59-49.18,10.88L88,145.66h0L79.59,159.3h0L47.14,212.13C37,228.6,42.64,250.44,59.69,260.91S98.75,266.5,108.86,250l73.26-119.3C192.24,114.26,186.62,92.42,169.58,82ZM94.75,241.37c-5.48,8.92-17.45,11.57-26.69,5.9s-12.29-17.55-6.81-26.48L93.69,168l9.7,5.95a8,8,0,1,0,8.37-13.63l-9.69-6,32.44-52.83C140,92.56,152,89.91,161.2,95.59s12.3,17.55,6.81,26.47Z"/><path class="cls-3" d="M191.17,149.7a59,59,0,1,1,0,83.44,59.08,59.08,0,0,1,0-83.44m-11.31-11.31a75,75,0,1,0,106.06,0,75,75,0,0,0-106.06,0Z"/><rect class="cls-3" x="197.89" y="183.42" width="70" height="16" rx="8" transform="translate(-67.14 220.74) rotate(-45)"/></g></g></svg>